<svg width="250" height="158" viewBox="0 0 250 158" fill="none" xmlns="http://www.w3.org/2000/svg">
<path d="M0 135.794V133.517H2.20323V135.794H0ZM0 151.52V138.152H2.20323V151.52H0Z" fill="#EAE9FB"/>
<path d="M5.90222 151.52V138.152H7.86963V141.73H8.11893V151.52H5.90222ZM13.9066 151.52L13.9201 143.057C13.9201 142.04 13.6573 141.245 13.125 140.659C12.5995 140.073 11.8988 139.783 11.0229 139.783C10.147 139.783 9.45299 140.079 8.92071 140.679C8.3817 141.279 8.11893 142.06 8.11893 143.037L6.95331 142.343C6.95331 141.474 7.16217 140.706 7.57317 140.025C7.98417 139.345 8.5434 138.806 9.2576 138.408C9.96506 138.011 10.7736 137.815 11.6697 137.815C12.5658 137.815 13.3541 138.004 14.0212 138.388C14.6882 138.772 15.207 139.318 15.5708 140.019C15.9347 140.726 16.1166 141.562 16.1166 142.525L16.1031 151.52H13.9066ZM21.8908 151.52L21.9043 142.97C21.9043 141.973 21.6415 141.191 21.1092 140.625C20.5769 140.059 19.8829 139.776 19.034 139.776C18.5421 139.776 18.0705 139.891 17.6258 140.12C17.1811 140.349 16.8173 140.706 16.5343 141.184C16.2513 141.663 16.1166 142.276 16.1166 143.03L14.951 142.559C14.9375 141.609 15.1329 140.78 15.5371 140.066C15.9481 139.352 16.5074 138.799 17.2148 138.402C17.9223 138.004 18.7241 137.809 19.6134 137.809C21.0081 137.809 22.1064 138.233 22.9082 139.082C23.71 139.931 24.1075 141.063 24.1075 142.485L24.094 151.52H21.8908Z" fill="#EAE9FB"/>
<path d="M27.3079 151.52V138.152H29.2753V141.73H29.5246V151.52H27.3079ZM35.319 151.52L35.3325 143.057C35.3325 142.04 35.0697 141.245 34.5374 140.659C34.0119 140.073 33.3112 139.783 32.4353 139.783C31.5594 139.783 30.8654 140.079 30.3331 140.679C29.7941 141.279 29.5313 142.06 29.5313 143.037L28.3657 142.343C28.3657 141.474 28.5746 140.706 28.9856 140.025C29.3966 139.345 29.9558 138.806 30.67 138.408C31.3775 138.011 32.186 137.815 33.0821 137.815C33.9782 137.815 34.7665 138.004 35.4336 138.388C36.1006 138.772 36.6194 139.318 36.9832 140.019C37.3471 140.726 37.529 141.562 37.529 142.525L37.5155 151.52H35.319ZM43.2965 151.52L43.3099 142.97C43.3099 141.973 43.0472 141.191 42.5149 140.625C41.9826 140.059 41.2886 139.776 40.4397 139.776C39.9478 139.776 39.4762 139.891 39.0315 140.12C38.5868 140.349 38.223 140.706 37.94 141.184C37.657 141.663 37.5222 142.276 37.5222 143.03L36.3566 142.559C36.3431 141.609 36.5385 140.78 36.9428 140.066C37.3538 139.352 37.913 138.799 38.6205 138.402C39.3279 138.004 40.1297 137.809 41.0191 137.809C42.4138 137.809 43.5121 138.233 44.3138 139.082C45.1156 139.931 45.5132 141.063 45.5132 142.485L45.4997 151.52H43.2965Z" fill="#EAE9FB"/>
<path d="M54.4002 151.89C53.0863 151.89 51.9409 151.601 50.964 151.021C49.987 150.442 49.2256 149.627 48.6799 148.582C48.1341 147.538 47.8646 146.318 47.8646 144.924C47.8646 143.529 48.1341 142.202 48.6664 141.13C49.2054 140.059 49.9533 139.237 50.9101 138.658C51.8735 138.078 52.9987 137.788 54.2924 137.788C55.586 137.788 56.7786 138.098 57.7286 138.718C58.6719 139.338 59.3861 140.221 59.8577 141.366C60.3294 142.512 60.5382 143.879 60.4709 145.463H58.2407V144.668C58.2137 143.024 57.8836 141.797 57.2368 140.989C56.5967 140.174 55.6332 139.769 54.3665 139.769C53.0055 139.769 51.9679 140.207 51.2604 141.083C50.553 141.959 50.1959 143.212 50.1959 144.843C50.1959 146.473 50.553 147.639 51.2604 148.508C51.9679 149.377 52.9785 149.809 54.2924 149.809C55.175 149.809 55.9431 149.606 56.5967 149.202C57.2502 148.798 57.7623 148.218 58.1329 147.457L60.2485 148.185C59.7297 149.364 58.9481 150.28 57.9038 150.927C56.8594 151.574 55.6938 151.897 54.3934 151.897L54.4002 151.89ZM49.4615 145.456V143.684H59.3389V145.456H49.4615Z" fill="#EAE9FB"/>
<path d="M63.2198 151.52V138.152H65.1872V141.38L64.8638 140.962C65.0188 140.551 65.2277 140.167 65.477 139.823C65.7263 139.48 66.0092 139.19 66.3259 138.968C66.6695 138.685 67.0671 138.476 67.4983 138.327C67.9362 138.186 68.3809 138.098 68.8323 138.065C69.2838 138.038 69.7082 138.065 70.1058 138.146V140.214C69.6409 140.1 69.1355 140.073 68.583 140.126C68.0305 140.187 67.5185 140.382 67.0468 140.719C66.6156 141.036 66.2855 141.407 66.0497 141.838C65.8138 142.269 65.6521 142.741 65.5578 143.246C65.4702 143.751 65.4231 144.27 65.4231 144.796V151.5H63.2064L63.2198 151.52Z" fill="#EAE9FB"/>
<path d="M77.0186 151.884C75.4285 151.884 74.1214 151.533 73.104 150.839C72.0866 150.145 71.46 149.168 71.231 147.915L73.4813 147.558C73.6633 148.286 74.081 148.859 74.7278 149.283C75.3814 149.707 76.1899 149.923 77.1534 149.923C78.063 149.923 78.7772 149.734 79.3027 149.357C79.8283 148.98 80.091 148.461 80.091 147.807C80.091 147.437 80.0034 147.134 79.8283 146.898C79.6531 146.662 79.296 146.44 78.757 146.238C78.2179 146.029 77.4027 145.779 76.3112 145.483C75.1321 145.166 74.2023 144.843 73.5285 144.513C72.8547 144.176 72.3696 143.792 72.0799 143.34C71.7902 142.896 71.6487 142.35 71.6487 141.71C71.6487 140.928 71.8643 140.241 72.2888 139.655C72.7132 139.069 73.3196 138.61 74.0877 138.287C74.8558 137.964 75.7587 137.802 76.7761 137.802C77.7935 137.802 78.6963 137.964 79.4981 138.287C80.2999 138.61 80.9467 139.062 81.4318 139.655C81.9237 140.248 82.2134 140.928 82.301 141.717L80.0506 142.128C79.9428 141.42 79.5992 140.854 79.013 140.436C78.4268 140.019 77.6789 139.796 76.7761 139.776C75.9069 139.749 75.2062 139.911 74.6672 140.248C74.1282 140.585 73.8587 141.036 73.8587 141.609C73.8587 141.939 73.9597 142.215 74.1618 142.444C74.364 142.673 74.7413 142.889 75.287 143.091C75.8328 143.3 76.6346 143.536 77.6789 143.799C78.858 144.095 79.7878 144.418 80.4683 144.769C81.1488 145.119 81.634 145.53 81.9237 146.008C82.2134 146.48 82.3549 147.066 82.3549 147.76C82.3549 149.047 81.8833 150.058 80.9332 150.799C79.9832 151.54 78.6761 151.904 77.0119 151.904L77.0186 151.884Z" fill="#EAE9FB"/>
<path d="M85.3464 135.794V133.517H87.5497V135.794H85.3464ZM85.3464 151.52V138.152H87.5497V151.52H85.3464Z" fill="#EAE9FB"/>
<path d="M94.8735 151.52L90.0224 138.152H92.2526L95.9987 148.71L99.7382 138.152H101.975L97.1239 151.52H94.8735Z" fill="#EAE9FB"/>
<path d="M109.501 151.89C108.187 151.89 107.042 151.601 106.065 151.021C105.088 150.442 104.327 149.627 103.781 148.582C103.235 147.538 102.966 146.318 102.966 144.924C102.966 143.529 103.235 142.202 103.767 141.13C104.306 140.059 105.054 139.237 106.011 138.658C106.974 138.078 108.1 137.788 109.393 137.788C110.687 137.788 111.879 138.098 112.83 138.718C113.773 139.338 114.487 140.221 114.959 141.366C115.43 142.512 115.639 143.879 115.572 145.463H113.342V144.668C113.315 143.024 112.984 141.797 112.338 140.989C111.698 140.174 110.734 139.769 109.467 139.769C108.106 139.769 107.069 140.207 106.361 141.083C105.654 141.959 105.297 143.212 105.297 144.843C105.297 146.473 105.654 147.639 106.361 148.508C107.069 149.377 108.079 149.809 109.393 149.809C110.276 149.809 111.044 149.606 111.698 149.202C112.351 148.798 112.863 148.218 113.234 147.457L115.349 148.185C114.831 149.364 114.049 150.28 113.005 150.927C111.96 151.574 110.795 151.897 109.494 151.897L109.501 151.89ZM104.562 145.456V143.684H114.44V145.456H104.562Z" fill="#EAE9FB"/>
<path d="M129.067 151.89C127.754 151.89 126.608 151.601 125.631 151.021C124.654 150.442 123.893 149.627 123.347 148.582C122.801 147.538 122.532 146.318 122.532 144.924C122.532 143.529 122.801 142.202 123.334 141.13C123.873 140.059 124.62 139.237 125.577 138.658C126.541 138.078 127.666 137.788 128.96 137.788C130.253 137.788 131.446 138.098 132.396 138.718C133.339 139.338 134.053 140.221 134.525 141.366C134.997 142.512 135.205 143.879 135.138 145.463H132.908V144.668C132.881 143.024 132.551 141.797 131.904 140.989C131.264 140.174 130.3 139.769 129.034 139.769C127.673 139.769 126.635 140.207 125.928 141.083C125.22 141.959 124.863 143.212 124.863 144.843C124.863 146.473 125.22 147.639 125.928 148.508C126.635 149.377 127.646 149.809 128.96 149.809C129.842 149.809 130.61 149.606 131.264 149.202C131.917 148.798 132.429 148.218 132.8 147.457L134.916 148.185C134.397 149.364 133.615 150.28 132.571 150.927C131.527 151.574 130.361 151.897 129.061 151.897L129.067 151.89ZM124.129 145.456V143.684H134.006V145.456H124.129Z" fill="#EAE9FB"/>
<path d="M135.906 151.52L141.013 144.762L136.014 138.152H138.635L142.3 143.051L145.925 138.152H148.546L143.547 144.762L148.667 151.52H146.033L142.293 146.473L138.534 151.52H135.899H135.906Z" fill="#EAE9FB"/>
<path d="M150.648 157.463V138.159H152.616V147.996H152.865V157.463H150.648ZM156.793 151.89C155.54 151.89 154.482 151.581 153.626 150.954C152.771 150.334 152.117 149.485 151.679 148.421C151.234 147.356 151.019 146.157 151.019 144.823C151.019 143.489 151.241 142.276 151.679 141.218C152.117 140.16 152.771 139.318 153.633 138.705C154.495 138.092 155.553 137.782 156.806 137.782C158.06 137.782 159.111 138.092 160.007 138.705C160.903 139.318 161.59 140.16 162.069 141.225C162.547 142.289 162.79 143.489 162.79 144.823C162.79 146.157 162.547 147.363 162.069 148.427C161.59 149.499 160.903 150.341 160.007 150.961C159.111 151.581 158.039 151.89 156.793 151.89ZM156.523 149.876C157.399 149.876 158.127 149.654 158.706 149.209C159.286 148.764 159.724 148.158 160.014 147.396C160.303 146.635 160.445 145.779 160.445 144.829C160.445 143.879 160.303 143.037 160.014 142.283C159.724 141.521 159.286 140.922 158.7 140.477C158.114 140.032 157.366 139.81 156.463 139.81C155.56 139.81 154.879 140.025 154.307 140.45C153.741 140.874 153.31 141.467 153.033 142.229C152.75 142.99 152.616 143.859 152.616 144.843C152.616 145.827 152.75 146.682 153.033 147.45C153.316 148.218 153.734 148.811 154.314 149.243C154.893 149.674 155.627 149.889 156.53 149.889L156.523 149.876Z" fill="#EAE9FB"/>
<path d="M171.299 151.89C169.985 151.89 168.84 151.601 167.863 151.021C166.886 150.442 166.125 149.627 165.579 148.582C165.033 147.538 164.764 146.318 164.764 144.924C164.764 143.529 165.033 142.202 165.565 141.13C166.104 140.059 166.852 139.237 167.809 138.658C168.773 138.078 169.898 137.788 171.191 137.788C172.485 137.788 173.678 138.098 174.628 138.718C175.571 139.338 176.278 140.221 176.757 141.366C177.228 142.512 177.437 143.879 177.37 145.463H175.14V144.668C175.113 143.024 174.783 141.797 174.136 140.989C173.496 140.174 172.539 139.769 171.266 139.769C169.905 139.769 168.867 140.207 168.159 141.083C167.452 141.959 167.095 143.212 167.095 144.843C167.095 146.473 167.452 147.639 168.159 148.508C168.867 149.377 169.878 149.809 171.191 149.809C172.074 149.809 172.842 149.606 173.496 149.202C174.149 148.798 174.661 148.218 175.032 147.457L177.148 148.185C176.629 149.364 175.847 150.28 174.803 150.927C173.759 151.574 172.593 151.897 171.293 151.897L171.299 151.89ZM166.361 145.456V143.684H176.238V145.456H166.361Z" fill="#EAE9FB"/>
<path d="M180.119 151.52V138.152H182.086V141.38L181.763 140.962C181.918 140.551 182.127 140.167 182.376 139.823C182.625 139.48 182.908 139.19 183.225 138.968C183.569 138.685 183.966 138.476 184.397 138.327C184.835 138.186 185.28 138.098 185.731 138.065C186.183 138.038 186.607 138.065 187.005 138.146V140.214C186.54 140.1 186.035 140.073 185.482 140.126C184.93 140.187 184.418 140.382 183.946 140.719C183.515 141.036 183.185 141.407 182.949 141.838C182.713 142.269 182.551 142.741 182.457 143.246C182.363 143.751 182.322 144.27 182.322 144.796V151.5H180.105L180.119 151.52Z" fill="#EAE9FB"/>
<path d="M189.612 135.794V133.517H191.816V135.794H189.612ZM189.612 151.52V138.152H191.816V151.52H189.612Z" fill="#EAE9FB"/>
<path d="M201.316 151.89C200.002 151.89 198.856 151.601 197.879 151.021C196.903 150.442 196.141 149.627 195.595 148.582C195.05 147.538 194.78 146.318 194.78 144.924C194.78 143.529 195.05 142.202 195.582 141.13C196.121 140.059 196.869 139.237 197.826 138.658C198.789 138.078 199.914 137.788 201.208 137.788C202.502 137.788 203.694 138.098 204.644 138.718C205.587 139.338 206.295 140.221 206.773 141.366C207.252 142.512 207.454 143.879 207.386 145.463H205.156V144.668C205.129 143.024 204.799 141.797 204.152 140.989C203.512 140.174 202.555 139.769 201.282 139.769C199.921 139.769 198.883 140.207 198.176 141.083C197.468 141.959 197.111 143.212 197.111 144.843C197.111 146.473 197.468 147.639 198.176 148.508C198.883 149.377 199.894 149.809 201.208 149.809C202.091 149.809 202.859 149.606 203.512 149.202C204.166 148.798 204.678 148.218 205.048 147.457L207.164 148.185C206.645 149.364 205.864 150.28 204.819 150.927C203.775 151.574 202.609 151.897 201.309 151.897L201.316 151.89ZM196.384 145.456V143.684H206.261V145.456H196.384Z" fill="#EAE9FB"/>
<path d="M209.758 151.52V138.152H211.739V141.73H211.988V151.52H209.758ZM219.285 151.52V144.823C219.285 144.196 219.225 143.59 219.11 143.003C218.995 142.417 218.8 141.892 218.531 141.42C218.261 140.948 217.89 140.578 217.426 140.308C216.961 140.039 216.374 139.897 215.66 139.897C215.108 139.897 214.609 139.992 214.158 140.18C213.706 140.369 213.322 140.652 212.999 141.029C212.675 141.407 212.426 141.878 212.251 142.451C212.076 143.024 211.988 143.697 211.988 144.472L210.54 144.028C210.54 142.741 210.775 141.629 211.24 140.699C211.705 139.769 212.366 139.048 213.208 138.55C214.057 138.051 215.047 137.802 216.199 137.802C217.068 137.802 217.803 137.937 218.416 138.213C219.029 138.482 219.534 138.846 219.939 139.304C220.343 139.763 220.66 140.261 220.889 140.814C221.118 141.366 221.28 141.932 221.381 142.512C221.482 143.091 221.522 143.63 221.522 144.135V151.52H219.285Z" fill="#EAE9FB"/>
<path d="M230.234 151.89C228.879 151.89 227.734 151.587 226.791 150.981C225.848 150.375 225.127 149.539 224.628 148.474C224.129 147.41 223.873 146.197 223.867 144.836C223.873 143.448 224.136 142.229 224.648 141.164C225.16 140.1 225.888 139.278 226.838 138.678C227.788 138.078 228.927 137.782 230.267 137.782C231.676 137.782 232.895 138.125 233.913 138.819C234.93 139.513 235.617 140.463 235.961 141.663L233.785 142.316C233.495 141.541 233.037 140.942 232.403 140.511C231.77 140.079 231.049 139.864 230.24 139.864C229.324 139.864 228.57 140.079 227.977 140.504C227.384 140.928 226.939 141.514 226.649 142.262C226.36 143.01 226.211 143.866 226.205 144.829C226.218 146.312 226.568 147.511 227.235 148.427C227.909 149.337 228.906 149.795 230.234 149.795C231.11 149.795 231.831 149.593 232.403 149.195C232.976 148.798 233.414 148.218 233.724 147.457L235.954 148.037C235.489 149.283 234.768 150.233 233.791 150.893C232.808 151.554 231.628 151.884 230.24 151.884L230.234 151.89Z" fill="#EAE9FB"/>
<path d="M243.911 151.89C242.598 151.89 241.452 151.601 240.475 151.021C239.498 150.442 238.737 149.627 238.191 148.582C237.645 147.538 237.376 146.318 237.376 144.924C237.376 143.529 237.645 142.202 238.178 141.13C238.717 140.059 239.465 139.237 240.421 138.658C241.385 138.078 242.51 137.788 243.804 137.788C245.097 137.788 246.29 138.098 247.24 138.718C248.183 139.338 248.891 140.221 249.369 141.366C249.847 142.512 250.049 143.879 249.982 145.463H247.752V144.668C247.725 143.024 247.395 141.797 246.748 140.989C246.108 140.174 245.151 139.769 243.878 139.769C242.517 139.769 241.479 140.207 240.772 141.083C240.064 141.959 239.707 143.212 239.707 144.843C239.707 146.473 240.064 147.639 240.772 148.508C241.479 149.377 242.49 149.809 243.804 149.809C244.686 149.809 245.454 149.606 246.108 149.202C246.761 148.798 247.274 148.218 247.644 147.457L249.76 148.185C249.241 149.364 248.459 150.28 247.415 150.927C246.371 151.574 245.205 151.897 243.905 151.897L243.911 151.89ZM238.973 145.456V143.684H248.85V145.456H238.973Z" fill="#EAE9FB"/>
<path d="M36.3027 7.44097C62.856 7.44097 75.7115 12.9524 75.7115 30.3222C75.7115 48.9654 51.1324 53.3449 48.1678 58.7149C45.7692 63.5188 61.5893 61.6794 69.9171 74.3935C78.8176 87.815 69.2096 114.934 86.1617 114.934V116.632H71.4735C60.4574 116.632 59.6084 111.404 59.6084 102.793C59.6084 92.6257 59.6084 79.2042 55.5119 72.4261C52.5473 67.4806 41.9489 61.9759 46.8944 55.8985C51.2739 50.5286 61.4411 46.715 61.4411 33.5832C61.4411 14.5156 50.8494 9.14561 36.4375 9.14561C33.0484 9.14561 24.1479 9.99456 24.1479 13.6666V110.42C24.1479 114.234 30.6431 114.516 34.0321 114.941V116.639H6.06994e-09V114.941C3.53055 114.516 9.8842 114.234 9.8842 110.42V13.6531C9.8842 9.83959 3.53055 9.55661 6.06994e-09 9.13213V7.43423H36.3027V7.44097Z" fill="#EAE9FB"/>
<path d="M109.75 8.84915C105.088 8.84915 101.274 12.6627 101.274 17.3252C101.274 21.9877 105.088 25.8012 109.75 25.8012C114.413 25.8012 118.226 22.1292 118.226 17.3252C118.226 12.5212 114.413 8.84915 109.75 8.84915Z" fill="#EAE9FB"/>
<path d="M125.57 115.21V116.625H94.3547V115.21C97.8853 114.786 103.531 114.503 103.531 110.831V44.7274C103.531 43.7167 103.067 42.9554 102.319 42.3827C100.466 40.9543 96.8746 40.6511 94.3547 40.3479V38.9397H116.387V110.831C116.387 114.503 122.606 114.786 125.57 115.21Z" fill="#EAE9FB"/>
<path d="M156.645 110.831C156.645 114.362 164.272 114.927 167.236 115.21V116.625H134.606V115.21C138.136 114.927 143.789 114.362 143.789 110.831V38.7982C143.789 15.7755 158.477 4.61787 169.076 1.22881C182.073 -2.86771 200.15 3.48594 196.761 17.1904C196.62 18.3224 193.089 24.676 189.983 24.11C187.16 23.5441 189.983 15.068 184.471 8.14843C180.799 3.48594 175.005 1.08732 168.085 3.34445C157.352 6.875 156.645 21.1455 156.645 38.7982V110.831Z" fill="#EAE9FB"/>
<path d="M209.468 110.831C209.468 114.362 217.095 114.927 220.06 115.21V116.625H187.429V115.21C190.96 114.927 196.613 114.362 196.613 110.831V38.7982C196.613 15.7755 211.301 4.61787 221.899 1.22881C234.896 -2.86771 252.974 3.48594 249.585 17.1904C249.443 18.3224 245.913 24.676 242.806 24.11C239.983 23.5441 242.806 15.068 237.295 8.14843C233.623 3.48594 227.835 1.08732 220.909 3.34445C210.176 6.875 209.468 21.1455 209.468 38.7982V110.831Z" fill="#EAE9FB"/>
<path d="M249.996 40.0986C245.454 45.792 237.329 46.1154 230.658 46.6948C219.831 47.4629 208.707 47.9009 198.176 49.4977C197.987 49.5246 197.805 49.5516 197.617 49.5785C193.345 50.2658 189.222 51.0474 185.32 52.4555C184.849 52.624 184.377 52.8059 183.912 52.9946C178.461 55.0159 174.837 59.8131 170.497 63.6805C166.893 66.9618 162.365 70.6204 157.069 70.4385C154.098 70.3239 151.497 68.7271 149.799 66.9955C148.128 65.3448 146.707 63.5997 145.352 61.8479C143.931 59.995 142.583 58.1354 141.121 56.3836C138.581 53.2641 135.771 50.3534 132.497 48.1367C132.173 47.9143 131.837 47.6987 131.5 47.4898C124.021 42.6252 114.911 43.1912 106.503 44.5118C106.031 44.5859 105.56 44.66 105.095 44.7409V38.9397H116.38C124.115 40.7522 129.141 43.2451 132.497 45.5427C132.584 45.6033 132.679 45.6639 132.692 45.6774C136.506 48.3051 139.774 51.5594 142.832 54.8946C143.681 55.8109 144.517 56.734 145.352 57.6436C146.774 59.1932 148.209 60.7227 149.752 62.1511C151.693 63.9905 154.482 66.2139 157.042 65.8433C160.89 65.2235 163.571 62.1309 166.32 59.4088C169.561 56.0737 172.283 52.5499 176.11 49.5246C177.532 48.4331 179.465 47.3551 181.096 46.6207C182.47 45.9671 183.885 45.4146 185.32 44.9363C189.026 43.6965 192.88 42.9756 196.586 42.4568C197.118 42.3827 197.644 42.3153 198.176 42.2547C211.213 40.7252 224.244 41.9447 237.255 42.5579C241.553 42.5915 245.973 42.3557 249.517 39.627L249.996 40.0986Z" fill="#EAE9FB"/>
</svg>
