<svg width="16" height="16" viewBox="0 0 16 16" fill="none" xmlns="http://www.w3.org/2000/svg">
<g clip-path="url(#clip0_3282_4495)">
<path d="M7.2736 14.6668V12.0002C7.2736 11.5988 7.59884 11.2736 8.00016 11.2736C8.40149 11.2736 8.72672 11.5988 8.72672 12.0002V14.6668C8.72672 15.0682 8.40149 15.3934 8.00016 15.3934C7.59884 15.3934 7.2736 15.0682 7.2736 14.6668ZM4.68636 10.2866C4.97014 10.0028 5.42992 10.0028 5.7137 10.2866C5.99749 10.5704 5.99749 11.0302 5.7137 11.314L3.78076 13.2476C3.49698 13.5313 3.03653 13.5313 2.75277 13.2476C2.46901 12.9638 2.46905 12.5033 2.75277 12.2196L4.68636 10.2866ZM10.2866 10.2866C10.5704 10.0028 11.0302 10.0028 11.314 10.2866L13.2476 12.2196C13.5313 12.5033 13.5313 12.9638 13.2476 13.2476C12.9638 13.5313 12.5033 13.5313 12.2196 13.2476L10.2866 11.314C10.0028 11.0302 10.0028 10.5704 10.2866 10.2866ZM4.00016 7.2736C4.40149 7.2736 4.72673 7.59884 4.72673 8.00016C4.72673 8.40149 4.40149 8.72672 4.00016 8.72672H1.3335C0.932169 8.72672 0.606934 8.40149 0.606934 8.00016C0.606934 7.59884 0.932169 7.2736 1.3335 7.2736H4.00016ZM14.6668 7.2736C15.0682 7.2736 15.3934 7.59884 15.3934 8.00016C15.3934 8.40149 15.0682 8.72672 14.6668 8.72672H12.0002C11.5988 8.72672 11.2736 8.40149 11.2736 8.00016C11.2736 7.59884 11.5988 7.2736 12.0002 7.2736H14.6668ZM2.75277 2.75277C3.03653 2.46901 3.49698 2.46905 3.78076 2.75277L5.7137 4.68636C5.99749 4.97014 5.99749 5.42992 5.7137 5.7137C5.42992 5.99749 4.97014 5.99749 4.68636 5.7137L2.75277 3.78076C2.46905 3.49698 2.46901 3.03653 2.75277 2.75277ZM12.2196 2.75277C12.5033 2.46905 12.9638 2.46901 13.2476 2.75277C13.5313 3.03653 13.5313 3.49698 13.2476 3.78076L11.314 5.7137C11.0302 5.99749 10.5704 5.99749 10.2866 5.7137C10.0028 5.42992 10.0028 4.97014 10.2866 4.68636L12.2196 2.75277ZM7.2736 4.00016V1.3335C7.2736 0.932169 7.59884 0.606934 8.00016 0.606934C8.40149 0.606934 8.72672 0.932169 8.72672 1.3335V4.00016C8.72672 4.40149 8.40149 4.72673 8.00016 4.72673C7.59884 4.72673 7.2736 4.40149 7.2736 4.00016Z" fill="#EAE9FB"/>
</g>
<defs>
<clipPath id="clip0_3282_4495">
<rect width="16" height="16" fill="white"/>
</clipPath>
</defs>
</svg>
