<svg width="16" height="16" viewBox="0 0 16 16" fill="none" xmlns="http://www.w3.org/2000/svg">
<path d="M13.3332 11.9403C13.7345 11.9403 14.0597 12.2655 14.0597 12.6668C14.0597 13.0682 13.7345 13.3934 13.3332 13.3934H7.99984C7.59851 13.3934 7.27327 13.0682 7.27327 12.6668C7.27327 12.2655 7.59851 11.9403 7.99984 11.9403H13.3332ZM9.33317 7.2736C9.7345 7.2736 10.0597 7.59884 10.0597 8.00016C10.0597 8.40149 9.7345 8.72673 9.33317 8.72673H2.6665C2.26518 8.72673 1.93994 8.40149 1.93994 8.00016C1.93994 7.59884 2.26518 7.2736 2.6665 7.2736H9.33317ZM11.9998 2.60693C12.4012 2.60693 12.7264 2.93217 12.7264 3.3335C12.7264 3.73482 12.4012 4.06006 11.9998 4.06006H3.99984C3.59851 4.06006 3.27327 3.73482 3.27327 3.3335C3.27327 2.93217 3.59851 2.60693 3.99984 2.60693H11.9998Z" fill="#EAE9FB"/>
</svg>
