<svg width="16" height="16" viewBox="0 0 16 16" fill="none" xmlns="http://www.w3.org/2000/svg">
<path d="M9.3335 9.94028C9.65989 9.94028 9.98176 10.0175 10.2723 10.1662C10.5629 10.3149 10.8139 10.5309 11.0047 10.7957C11.1955 11.0605 11.3207 11.367 11.37 11.6896C11.4192 12.0123 11.3911 12.3422 11.2879 12.6519C11.1847 12.9614 11.0091 13.2423 10.7762 13.4709C10.5433 13.6994 10.2589 13.869 9.94743 13.9663C9.63601 14.0636 9.30607 14.0854 8.98454 14.0301C8.6629 13.9748 8.35892 13.8438 8.09782 13.648C7.77683 13.4072 7.71137 12.9521 7.95199 12.631C8.19276 12.31 8.64851 12.2445 8.96956 12.4852C9.04645 12.5429 9.13591 12.5815 9.23063 12.5978C9.32537 12.6141 9.42273 12.6076 9.51449 12.5789C9.60617 12.5503 9.69005 12.5004 9.75863 12.4331C9.82711 12.3659 9.87864 12.2833 9.90902 12.1922C9.93942 12.101 9.9476 12.0034 9.93311 11.9084C9.91858 11.8135 9.88183 11.7233 9.82568 11.6454C9.76955 11.5675 9.6956 11.5042 9.61019 11.4605C9.52462 11.4167 9.42962 11.3934 9.3335 11.3934H1.3335C0.932169 11.3934 0.606934 11.0682 0.606934 10.6668C0.606934 10.2655 0.932169 9.94028 1.3335 9.94028H9.3335ZM13.215 3.95004C13.6213 3.98668 14.0115 4.12647 14.3485 4.35629C14.6855 4.58615 14.9583 4.8983 15.1408 5.26319C15.3232 5.62804 15.4091 6.03343 15.3908 6.44093C15.3725 6.84847 15.2504 7.24494 15.036 7.59197C14.8215 7.93891 14.5218 8.22538 14.1655 8.424C13.8092 8.62262 13.4081 8.72673 13.0002 8.72673H1.3335C0.932169 8.72673 0.606934 8.4015 0.606934 8.00017C0.606934 7.59885 0.932169 7.27361 1.3335 7.27361H13.0002L13.1193 7.2658C13.2379 7.25065 13.3528 7.21303 13.4578 7.15447C13.5978 7.07645 13.7154 6.96393 13.7996 6.82765C13.8839 6.69137 13.9318 6.53586 13.939 6.37582C13.9462 6.21575 13.9123 6.05624 13.8407 5.91293C13.769 5.76979 13.6623 5.64703 13.5301 5.55681C13.3978 5.46658 13.2443 5.41173 13.0848 5.39731C12.9252 5.38292 12.7644 5.40964 12.618 5.47478C12.4716 5.53992 12.3443 5.64153 12.2482 5.7697C12.0074 6.09067 11.5517 6.15566 11.2306 5.91489C10.9097 5.67407 10.8447 5.21833 11.0854 4.89731C11.3302 4.57103 11.6542 4.3125 12.0269 4.14666C12.3996 3.98081 12.8087 3.91342 13.215 3.95004ZM6.98454 1.97022C7.30607 1.91495 7.63601 1.93679 7.94743 2.03403C8.25891 2.13133 8.54325 2.30095 8.77621 2.52947C9.00914 2.75803 9.18469 3.0389 9.28792 3.34848C9.39113 3.6581 9.41916 3.98808 9.36996 4.31072C9.32073 4.63336 9.19554 4.93982 9.00472 5.2046C8.81386 5.4694 8.56285 5.68542 8.2723 5.83416C7.98176 5.98288 7.65989 6.06007 7.3335 6.06007H1.3335C0.932169 6.06007 0.606934 5.73483 0.606934 5.33351C0.606934 4.93218 0.932169 4.60694 1.3335 4.60694H7.3335C7.42962 4.60694 7.52462 4.58369 7.61019 4.53989C7.6956 4.4961 7.76955 4.43286 7.82568 4.35499C7.88183 4.27709 7.91858 4.18688 7.93311 4.09197C7.9476 3.99694 7.93942 3.89931 7.90902 3.80811C7.87863 3.71707 7.82711 3.63448 7.75863 3.56723C7.69006 3.49995 7.60617 3.45007 7.51449 3.4214C7.42273 3.39273 7.32537 3.38622 7.23063 3.40252C7.13591 3.41882 7.04645 3.45748 6.96956 3.51515C6.64851 3.75585 6.19276 3.69034 5.95199 3.36931C5.71137 3.04826 5.77683 2.59313 6.09782 2.35239C6.35892 2.15658 6.6629 2.02556 6.98454 1.97022Z" fill="#EAE9FB"/>
</svg>
