<svg width="16" height="16" viewBox="0 0 16 16" fill="none" xmlns="http://www.w3.org/2000/svg">
<path d="M5.97016 12.0578C5.97016 12.4913 5.88903 12.8371 5.75164 13.133C5.6198 13.417 5.44505 13.6314 5.31968 13.7882C5.11956 14.0382 4.76269 14.0716 4.52267 13.8632C4.2828 13.6547 4.25067 13.2827 4.45068 13.0326C4.58471 12.865 4.66977 12.7546 4.73257 12.6194C4.78987 12.496 4.83853 12.3276 4.83853 12.0578C4.83853 11.8053 4.79159 11.6391 4.73206 11.5099C4.66675 11.3681 4.5774 11.2485 4.44307 11.0735C4.31784 10.9103 4.14752 10.6916 4.01821 10.4109C3.88305 10.1175 3.8002 9.77633 3.8002 9.3526C3.8002 8.9191 3.88133 8.57329 4.01871 8.27739C4.15056 7.99343 4.32531 7.779 4.45068 7.62222C4.58471 7.45461 4.66977 7.34423 4.73257 7.20905C4.78987 7.08565 4.83853 6.91723 4.83853 6.6474C4.83853 6.39486 4.79159 6.22873 4.73206 6.09949C4.66675 5.95768 4.5774 5.83805 4.44307 5.66307C4.31784 5.49993 4.14752 5.28124 4.01821 5.0005C3.88305 4.70707 3.8002 4.36593 3.8002 3.9422C3.8002 3.50869 3.88133 3.16289 4.01871 2.86699C4.15056 2.58303 4.32531 2.3686 4.45068 2.21182C4.6508 1.96185 5.00767 1.92836 5.24768 2.13679C5.48755 2.34534 5.51969 2.71725 5.31968 2.96737C5.18565 3.13499 5.10059 3.24537 5.03779 3.38055C4.98049 3.50395 4.93182 3.67237 4.93182 3.9422C4.93182 4.19473 4.97877 4.36086 5.03829 4.49011C5.10361 4.63192 5.19296 4.75155 5.32728 4.92653C5.45252 5.08967 5.62284 5.30836 5.75215 5.5891C5.88731 5.88253 5.97016 6.22367 5.97016 6.6474C5.97016 7.08091 5.88903 7.42671 5.75164 7.72261C5.6198 8.00657 5.44505 8.221 5.31968 8.37778C5.18565 8.54539 5.10059 8.65577 5.03779 8.79095C4.98049 8.91435 4.93182 9.08277 4.93182 9.3526C4.93182 9.60514 4.97877 9.77127 5.03829 9.90051C5.10361 10.0423 5.19296 10.162 5.32728 10.3369C5.45252 10.5001 5.62284 10.7188 5.75215 10.9995C5.88731 11.2929 5.97016 11.6341 5.97016 12.0578ZM9.08518 12.0578C9.08518 12.4913 9.00404 12.8371 8.86666 13.133C8.73482 13.417 8.56006 13.6314 8.4347 13.7882C8.23458 14.0382 7.8777 14.0716 7.63769 13.8632C7.39782 13.6547 7.36568 13.2827 7.5657 13.0326C7.69972 12.865 7.78478 12.7546 7.84759 12.6194C7.90488 12.496 7.95355 12.3276 7.95355 12.0578C7.95355 11.8053 7.9066 11.6391 7.84708 11.5099C7.78176 11.3681 7.69242 11.2485 7.55809 11.0735C7.43286 10.9103 7.26254 10.6916 7.13322 10.4109C6.99807 10.1175 6.91521 9.77633 6.91521 9.3526C6.91521 8.9191 6.99635 8.57329 7.13373 8.27739C7.26557 7.99343 7.44033 7.779 7.5657 7.62222C7.69972 7.45461 7.78478 7.34423 7.84759 7.20905C7.90488 7.08565 7.95355 6.91723 7.95355 6.6474C7.95355 6.39486 7.9066 6.22873 7.84708 6.09949C7.78176 5.95768 7.69242 5.83805 7.55809 5.66307C7.43286 5.49993 7.26254 5.28124 7.13322 5.0005C6.99807 4.70707 6.91521 4.36593 6.91521 3.9422C6.91521 3.50869 6.99635 3.16289 7.13373 2.86699C7.26557 2.58303 7.44033 2.3686 7.5657 2.21182C7.76581 1.96185 8.12269 1.92836 8.3627 2.13679C8.60257 2.34534 8.63471 2.71725 8.4347 2.96737C8.30067 3.13499 8.21561 3.24537 8.1528 3.38055C8.09551 3.50395 8.04684 3.67237 8.04684 3.9422C8.04684 4.19473 8.09379 4.36086 8.15331 4.49011C8.21863 4.63192 8.30797 4.75155 8.4423 4.92653C8.56754 5.08967 8.73785 5.30836 8.86717 5.5891C9.00232 5.88253 9.08518 6.22367 9.08518 6.6474C9.08518 7.08091 9.00404 7.42671 8.86666 7.72261C8.73482 8.00657 8.56006 8.221 8.4347 8.37778C8.30067 8.54539 8.21561 8.65577 8.1528 8.79095C8.09551 8.91435 8.04684 9.08277 8.04684 9.3526C8.04684 9.60514 8.09379 9.77127 8.15331 9.90051C8.21863 10.0423 8.30797 10.162 8.4423 10.3369C8.56754 10.5001 8.73785 10.7188 8.86717 10.9995C9.00232 11.2929 9.08518 11.6341 9.08518 12.0578ZM12.2002 12.0578C12.2002 12.4913 12.1191 12.8371 11.9817 13.133C11.8498 13.417 11.6751 13.6314 11.5497 13.7882C11.3496 14.0382 10.9927 14.0716 10.7527 13.8632C10.5128 13.6547 10.4807 13.2827 10.6807 13.0326C10.8147 12.865 10.8998 12.7546 10.9626 12.6194C11.0199 12.496 11.0686 12.3276 11.0686 12.0578C11.0686 11.8053 11.0216 11.6391 10.9621 11.5099C10.8968 11.3681 10.8074 11.2485 10.6731 11.0735C10.5479 10.9103 10.3776 10.6916 10.2482 10.4109C10.1131 10.1175 10.0302 9.77633 10.0302 9.3526C10.0302 8.9191 10.1114 8.57329 10.2487 8.27739C10.3806 7.99343 10.5553 7.779 10.6807 7.62222C10.8147 7.45461 10.8998 7.34423 10.9626 7.20905C11.0199 7.08565 11.0686 6.91723 11.0686 6.6474C11.0686 6.39486 11.0216 6.22873 10.9621 6.09949C10.8968 5.95768 10.8074 5.83805 10.6731 5.66307C10.5479 5.49993 10.3776 5.28124 10.2482 5.0005C10.1131 4.70707 10.0302 4.36593 10.0302 3.9422C10.0302 3.50869 10.1114 3.16289 10.2487 2.86699C10.3806 2.58303 10.5553 2.3686 10.6807 2.21182C10.8808 1.96185 11.2377 1.92836 11.4777 2.13679C11.7176 2.34534 11.7497 2.71725 11.5497 2.96737C11.4157 3.13499 11.3306 3.24537 11.2678 3.38055C11.2105 3.50395 11.1619 3.67237 11.1619 3.9422C11.1619 4.19473 11.2088 4.36086 11.2683 4.49011C11.3336 4.63192 11.423 4.75155 11.5573 4.92653C11.6826 5.08967 11.8529 5.30836 11.9822 5.5891C12.1173 5.88253 12.2002 6.22367 12.2002 6.6474C12.2002 7.08091 12.1191 7.42671 11.9817 7.72261C11.8498 8.00657 11.6751 8.221 11.5497 8.37778C11.4157 8.54539 11.3306 8.65577 11.2678 8.79095C11.2105 8.91435 11.1619 9.08277 11.1619 9.3526C11.1619 9.60514 11.2088 9.77127 11.2683 9.90051C11.3336 10.0423 11.423 10.162 11.5573 10.3369C11.6826 10.5001 11.8529 10.7188 11.9822 10.9995C12.1173 11.2929 12.2002 11.6341 12.2002 12.0578Z" fill="#EAE9FB"/>
</svg>
