<svg width="16" height="16" viewBox="0 0 16 16" fill="none" xmlns="http://www.w3.org/2000/svg">
<g clip-path="url(#clip0_3282_4489)">
<path d="M7.94027 11.0002C7.94027 9.37644 6.62388 8.06006 5.00016 8.06006C3.37645 8.06006 2.06006 9.37644 2.06006 11.0002C2.06006 12.6239 3.37645 13.9403 5.00016 13.9403C6.62388 13.9403 7.94027 12.6239 7.94027 11.0002ZM5.40706 11.2C5.40703 11.0392 5.34307 10.8847 5.22933 10.771C5.11559 10.6573 4.96114 10.5933 4.80029 10.5933C4.39897 10.5933 4.07373 10.268 4.07373 9.8667C4.0738 9.46543 4.39901 9.14014 4.80029 9.14014C5.34659 9.14017 5.87038 9.35736 6.25667 9.74365C6.64297 10.1299 6.86015 10.6537 6.86019 11.2C6.86019 11.6013 6.53489 11.9265 6.13363 11.9266C5.7323 11.9266 5.40706 11.6014 5.40706 11.2ZM13.9403 5.66683C13.9403 4.77949 13.2208 4.06006 12.3335 4.06006C11.4462 4.06006 10.7267 4.77949 10.7267 5.66683C10.7267 6.55417 11.4462 7.2736 12.3335 7.2736C13.2208 7.2736 13.9403 6.55417 13.9403 5.66683ZM5.94027 3.00016C5.94027 2.48101 5.51931 2.06006 5.00016 2.06006C4.48101 2.06006 4.06006 2.48101 4.06006 3.00016C4.06006 3.51931 4.48101 3.94027 5.00016 3.94027C5.51931 3.94027 5.94027 3.51931 5.94027 3.00016ZM9.39339 11.0002C9.39339 13.4265 7.42653 15.3934 5.00016 15.3934C2.57379 15.3934 0.606934 13.4265 0.606934 11.0002C0.606934 8.57379 2.57379 6.60693 5.00016 6.60693C7.42653 6.60693 9.39339 8.57379 9.39339 11.0002ZM15.3934 5.66683C15.3934 7.35682 14.0235 8.72672 12.3335 8.72672C10.6435 8.72672 9.2736 7.35682 9.2736 5.66683C9.2736 3.97684 10.6435 2.60693 12.3335 2.60693C14.0235 2.60693 15.3934 3.97684 15.3934 5.66683ZM7.39339 3.00016C7.39339 4.32196 6.32196 5.39339 5.00016 5.39339C3.67836 5.39339 2.60693 4.32196 2.60693 3.00016C2.60693 1.67836 3.67836 0.606934 5.00016 0.606934C6.32196 0.606934 7.39339 1.67836 7.39339 3.00016Z" fill="#EAE9FB"/>
</g>
<defs>
<clipPath id="clip0_3282_4489">
<rect width="16" height="16" fill="white"/>
</clipPath>
</defs>
</svg>
