<svg width="16" height="16" viewBox="0 0 16 16" fill="none" xmlns="http://www.w3.org/2000/svg">
<path d="M4.39657 1.65881C6.22619 0.926962 7.86473 1.26998 8.54306 2.42313C8.8779 2.9924 8.90387 3.67918 8.5997 4.29553C8.3002 4.90237 7.7144 5.3831 6.92196 5.68029C6.90549 5.68647 6.88871 5.69226 6.87183 5.69722C4.12877 6.504 3.07812 7.64738 2.81454 8.43811C2.5878 9.11842 2.88321 9.68897 3.4467 9.9329L3.56324 9.97717L3.60295 9.99214C4.11462 10.1968 4.6429 10.0846 5.31649 9.6204C6.00958 9.14273 6.7003 8.39865 7.47274 7.58329C8.20709 6.80815 9.02818 5.95455 9.90569 5.44462C10.3562 5.18284 10.8568 4.98944 11.4005 4.95569C11.9547 4.92131 12.5059 5.05615 13.0405 5.37691C14.099 6.01206 14.6307 7.03956 14.7963 8.12496C14.9597 9.19672 14.7757 10.3554 14.3881 11.3815C14.3451 11.4953 14.2986 11.6082 14.2501 11.72C14.3742 11.899 14.4978 12.088 14.6199 12.2877C14.8291 12.6301 14.7213 13.0771 14.379 13.2864C14.066 13.4777 13.6659 13.4037 13.4395 13.1282C13.1916 13.4594 12.9173 13.7588 12.6186 14.0097C11.8465 14.6582 10.8377 15.0452 9.77027 14.6894C9.73769 14.6785 9.70594 14.665 9.67522 14.6497C8.62528 14.1247 8.07332 13.2442 7.97991 12.3177C7.88954 11.421 8.23345 10.5167 8.88485 9.92183C9.56085 9.30461 10.5404 9.04764 11.6023 9.42444C12.1274 9.61076 12.6531 9.94464 13.1707 10.4368C13.3827 9.71933 13.4575 8.98621 13.3595 8.34371C13.2438 7.58552 12.901 6.98783 12.2931 6.623C11.9944 6.4438 11.7329 6.39115 11.4903 6.40621C11.2371 6.42193 10.9564 6.51505 10.6362 6.70113C9.97214 7.08697 9.29296 7.77458 8.52743 8.58264C7.79987 9.35062 6.98994 10.2322 6.14136 10.817C5.28338 11.4083 4.24298 11.7929 3.1036 11.3554V11.3561C1.74168 10.9021 0.927589 9.50271 1.43564 7.97847C1.91992 6.52561 3.52394 5.17485 6.42326 4.31441C6.95575 4.11215 7.20068 3.84604 7.29631 3.6523C7.38793 3.46666 7.37216 3.29913 7.29045 3.16011C7.13544 2.89659 6.44 2.40628 4.93629 3.00777C4.56371 3.15669 4.1413 2.97538 3.99228 2.60282C3.84335 2.23032 4.02418 1.80795 4.39657 1.65881ZM11.1166 10.7942C10.564 10.5981 10.147 10.737 9.86467 10.9947C9.55796 11.2749 9.38083 11.7249 9.42587 12.1718C9.46679 12.5779 9.69601 13.0167 10.2768 13.3242C10.6978 13.4453 11.1727 13.3257 11.6837 12.8964C11.9907 12.6385 12.2806 12.2866 12.5346 11.8737C11.9954 11.2542 11.5088 10.9334 11.1166 10.7942Z" fill="#EAE9FB"/>
</svg>
