<svg width="16" height="16" viewBox="0 0 16 16" fill="none" xmlns="http://www.w3.org/2000/svg">
<path d="M7.48627 7.48649C7.77005 7.20271 8.22984 7.20271 8.51362 7.48649C8.7974 7.77027 8.7974 8.23005 8.51362 8.51383L2.51362 14.5138C2.22984 14.7976 1.77005 14.7976 1.48627 14.5138C1.20249 14.2301 1.20249 13.7703 1.48627 13.4865L7.48627 7.48649ZM9.27338 10.6668V9.3335C9.27338 8.93217 9.59862 8.60693 9.99994 8.60693C10.4013 8.60693 10.7265 8.93217 10.7265 9.3335V10.6668C10.7265 11.0682 10.4013 11.3934 9.99994 11.3934C9.59862 11.3934 9.27338 11.0682 9.27338 10.6668ZM11.3528 7.35303C11.6365 7.06929 12.0964 7.06938 12.3802 7.35303L13.1803 8.15316C13.4641 8.43694 13.4641 8.89672 13.1803 9.1805C12.8965 9.46428 12.4367 9.46428 12.1529 9.1805L11.3528 8.38037C11.0692 8.09658 11.0691 7.63676 11.3528 7.35303ZM6.66661 5.2736C7.06794 5.2736 7.39317 5.59884 7.39317 6.00016C7.39317 6.40149 7.06794 6.72673 6.66661 6.72673H5.33328C4.93195 6.72673 4.60672 6.40149 4.60672 6.00016C4.60672 5.59884 4.93195 5.2736 5.33328 5.2736H6.66661ZM10.0065 5.2736C10.4078 5.2736 10.733 5.59884 10.733 6.00016C10.733 6.40149 10.4078 6.72673 10.0065 6.72673H9.99994C9.59862 6.72673 9.27338 6.40149 9.27338 6.00016C9.27338 5.59884 9.59862 5.2736 9.99994 5.2736H10.0065ZM14.6666 5.2736C15.0679 5.2736 15.3932 5.59884 15.3932 6.00016C15.3932 6.40149 15.0679 6.72673 14.6666 6.72673H13.3333C12.932 6.72673 12.6067 6.40149 12.6067 6.00016C12.6067 5.59884 12.932 5.2736 13.3333 5.2736H14.6666ZM6.81961 2.81982C7.10339 2.53604 7.56317 2.53604 7.84695 2.81982L8.64708 3.61995C8.93073 3.90375 8.93082 4.36356 8.64708 4.6473C8.36334 4.93104 7.90353 4.93095 7.61974 4.6473L6.81961 3.84717C6.53583 3.56339 6.53583 3.10361 6.81961 2.81982ZM12.1529 2.81982C12.4367 2.53604 12.8965 2.53604 13.1803 2.81982C13.4641 3.10361 13.4641 3.56339 13.1803 3.84717L12.3802 4.6473C12.0964 4.93095 11.6365 4.93104 11.3528 4.6473C11.0691 4.36356 11.0692 3.90375 11.3528 3.61995L12.1529 2.81982ZM9.27338 2.66683V1.3335C9.27338 0.932169 9.59862 0.606934 9.99994 0.606934C10.4013 0.606934 10.7265 0.932169 10.7265 1.3335V2.66683C10.7265 3.06816 10.4013 3.39339 9.99994 3.39339C9.59862 3.39339 9.27338 3.06816 9.27338 2.66683Z" fill="#EAE9FB"/>
</svg>
