<svg width="16" height="16" viewBox="0 0 16 16" fill="none" xmlns="http://www.w3.org/2000/svg">
<path d="M13.0001 10.6069C13.5343 10.6069 13.9604 10.7111 14.325 10.8875C14.6749 11.0568 14.9391 11.2812 15.1323 11.4422C15.4403 11.6992 15.4815 12.1575 15.2247 12.4657C14.9677 12.7737 14.5095 12.8149 14.2013 12.5581C13.9947 12.386 13.8587 12.2768 13.6922 12.1961C13.5401 12.1226 13.3326 12.0601 13.0001 12.0601C12.6889 12.0601 12.4842 12.1203 12.325 12.1968C12.1502 12.2807 12.0028 12.3954 11.7872 12.5679C11.5862 12.7287 11.3167 12.9474 10.9708 13.1134C10.6092 13.287 10.1889 13.3934 9.66677 13.3934C9.1326 13.3934 8.7065 13.2892 8.3419 13.1128C7.99201 12.9435 7.72779 12.7191 7.5346 12.5581C7.32807 12.386 7.19207 12.2768 7.02549 12.1961C6.87344 12.1226 6.66591 12.0601 6.33343 12.0601C6.02226 12.0601 5.81755 12.1203 5.6583 12.1968C5.48356 12.2807 5.33616 12.3954 5.12054 12.5679C4.91953 12.7287 4.65006 12.9474 4.30414 13.1134C3.94256 13.287 3.52222 13.3934 3.0001 13.3934C2.46594 13.3934 2.03983 13.2892 1.67523 13.1128C1.32534 12.9435 1.06112 12.7191 0.867938 12.5581C0.559921 12.3011 0.518655 11.8429 0.77549 11.5347C1.03246 11.2267 1.49073 11.1854 1.79893 11.4422C2.00546 11.6143 2.14147 11.7236 2.30804 11.8042C2.46009 11.8778 2.66762 11.9403 3.0001 11.9403C3.31127 11.9403 3.51598 11.88 3.67523 11.8035C3.84997 11.7197 3.99738 11.6049 4.21299 11.4325C4.414 11.2716 4.68347 11.0529 5.0294 10.8869C5.39097 10.7133 5.81131 10.6069 6.33343 10.6069C6.8676 10.6069 7.2937 10.7111 7.6583 10.8875C8.00819 11.0568 8.27241 11.2812 8.46559 11.4422C8.67213 11.6143 8.80813 11.7236 8.97471 11.8042C9.12676 11.8778 9.33429 11.9403 9.66677 11.9403C9.97794 11.9403 10.1826 11.88 10.3419 11.8035C10.5166 11.7197 10.664 11.6049 10.8797 11.4325C11.0807 11.2716 11.3501 11.0529 11.6961 10.8869C12.0576 10.7133 12.478 10.6069 13.0001 10.6069ZM13.0001 6.60693C13.5343 6.60693 13.9604 6.71112 14.325 6.88753C14.6749 7.05683 14.9391 7.28124 15.1323 7.44222C15.4403 7.69919 15.4815 8.15746 15.2247 8.46566C14.9677 8.77367 14.5095 8.81494 14.2013 8.5581C13.9947 8.386 13.8587 8.27677 13.6922 8.19613C13.5401 8.12255 13.3326 8.06006 13.0001 8.06006C12.6889 8.06006 12.4842 8.12035 12.325 8.19678C12.1502 8.28065 12.0028 8.39538 11.7872 8.56787C11.5862 8.72868 11.3167 8.94739 10.9708 9.11344C10.6092 9.287 10.1889 9.39339 9.66677 9.39339C9.1326 9.39339 8.7065 9.28921 8.3419 9.11279C7.99201 8.94349 7.72779 8.71909 7.5346 8.5581C7.32807 8.386 7.19207 8.27677 7.02549 8.19613C6.87344 8.12255 6.66591 8.06006 6.33343 8.06006C6.02226 8.06006 5.81755 8.12035 5.6583 8.19678C5.48356 8.28065 5.33616 8.39538 5.12054 8.56787C4.91953 8.72868 4.65006 8.94739 4.30414 9.11344C3.94256 9.287 3.52222 9.39339 3.0001 9.39339C2.46594 9.39339 2.03983 9.28921 1.67523 9.11279C1.32534 8.94349 1.06112 8.71909 0.867938 8.5581C0.559921 8.30113 0.518655 7.84287 0.77549 7.53467C1.03246 7.22665 1.49073 7.18539 1.79893 7.44222C2.00546 7.61433 2.14147 7.72355 2.30804 7.8042C2.46009 7.87777 2.66762 7.94027 3.0001 7.94027C3.31127 7.94027 3.51598 7.87998 3.67523 7.80355C3.84997 7.71967 3.99738 7.60495 4.21299 7.43245C4.414 7.27164 4.68347 7.05294 5.0294 6.88688C5.39097 6.71333 5.81131 6.60693 6.33343 6.60693C6.8676 6.60693 7.2937 6.71112 7.6583 6.88753C8.00819 7.05683 8.27241 7.28124 8.46559 7.44222C8.67213 7.61433 8.80813 7.72355 8.97471 7.8042C9.12676 7.87777 9.33429 7.94027 9.66677 7.94027C9.97794 7.94027 10.1826 7.87998 10.3419 7.80355C10.5166 7.71967 10.664 7.60495 10.8797 7.43245C11.0807 7.27164 11.3501 7.05294 11.6961 6.88688C12.0576 6.71333 12.478 6.60693 13.0001 6.60693ZM13.0001 2.60693C13.5343 2.60693 13.9604 2.71112 14.325 2.88753C14.6749 3.05683 14.9391 3.28124 15.1323 3.44222C15.4403 3.69919 15.4815 4.15746 15.2247 4.46566C14.9677 4.77367 14.5095 4.81494 14.2013 4.55811C13.9947 4.386 13.8587 4.27677 13.6922 4.19613C13.5401 4.12255 13.3326 4.06006 13.0001 4.06006C12.6889 4.06006 12.4842 4.12035 12.325 4.19678C12.1502 4.28065 12.0028 4.39538 11.7872 4.56787C11.5862 4.72869 11.3167 4.94739 10.9708 5.11344C10.6092 5.287 10.1889 5.39339 9.66677 5.39339C9.1326 5.39339 8.7065 5.28921 8.3419 5.11279C7.99201 4.94349 7.72779 4.71909 7.5346 4.55811C7.32807 4.386 7.19207 4.27677 7.02549 4.19613C6.87344 4.12255 6.66591 4.06006 6.33343 4.06006C6.02226 4.06006 5.81755 4.12035 5.6583 4.19678C5.48356 4.28065 5.33616 4.39538 5.12054 4.56787C4.91953 4.72869 4.65006 4.94739 4.30414 5.11344C3.94256 5.287 3.52222 5.39339 3.0001 5.39339C2.46594 5.39339 2.03983 5.28921 1.67523 5.11279C1.32534 4.94349 1.06112 4.71909 0.867938 4.55811C0.559921 4.30113 0.518655 3.84287 0.77549 3.53467C1.03246 3.22665 1.49073 3.18539 1.79893 3.44222C2.00546 3.61433 2.14147 3.72355 2.30804 3.8042C2.46009 3.87777 2.66762 3.94027 3.0001 3.94027C3.31127 3.94027 3.51598 3.87998 3.67523 3.80355C3.84997 3.71967 3.99738 3.60495 4.21299 3.43245C4.414 3.27164 4.68347 3.05294 5.0294 2.88688C5.39097 2.71333 5.81131 2.60693 6.33343 2.60693C6.8676 2.60693 7.2937 2.71112 7.6583 2.88753C8.00819 3.05683 8.27241 3.28124 8.46559 3.44222C8.67213 3.61433 8.80813 3.72355 8.97471 3.8042C9.12676 3.87777 9.33429 3.94027 9.66677 3.94027C9.97794 3.94027 10.1826 3.87998 10.3419 3.80355C10.5166 3.71967 10.664 3.60495 10.8797 3.43245C11.0807 3.27164 11.3501 3.05294 11.6961 2.88688C12.0576 2.71333 12.478 2.60693 13.0001 2.60693Z" fill="#EAE9FB"/>
</svg>
