<svg width="16" height="16" viewBox="0 0 16 16" fill="none" xmlns="http://www.w3.org/2000/svg">
<path d="M10.6068 10C10.6068 9.66495 10.3351 9.39323 10 9.39323C9.66495 9.39323 9.39323 9.66495 9.39323 10C9.39323 10.3351 9.66495 10.6068 10 10.6068C10.3351 10.6068 10.6068 10.3351 10.6068 10ZM12.0599 10C12.0599 11.1377 11.1377 12.0599 10 12.0599C9.11835 12.0599 8.36818 11.5053 8.07422 10.7266H6C5.8391 10.7266 5.68474 10.7905 5.57096 10.9043C5.45719 11.0181 5.39323 11.1724 5.39323 11.3333V13.2734H12.6667C13.0017 13.2734 13.2734 13.0017 13.2734 12.6667V3.33333C13.2734 2.99828 13.0017 2.72656 12.6667 2.72656H12.0599V4.66667C12.0599 5.21301 11.8427 5.73672 11.4564 6.12305C11.0701 6.50937 10.5463 6.72656 10 6.72656H7.92578C7.63182 7.50533 6.88165 8.0599 6 8.0599C4.86229 8.0599 3.9401 7.13771 3.9401 6C3.9401 4.86229 4.86229 3.9401 6 3.9401C6.88165 3.9401 7.63182 4.49467 7.92578 5.27344H10C10.1609 5.27344 10.3153 5.20948 10.429 5.0957C10.5428 4.98193 10.6068 4.82756 10.6068 4.66667V2.72656H3.33333C2.99828 2.72656 2.72656 2.99828 2.72656 3.33333V12.6667C2.72656 13.0017 2.99828 13.2734 3.33333 13.2734H3.9401V11.3333C3.9401 10.787 4.15729 10.2633 4.54362 9.87695C4.92994 9.49063 5.45365 9.27344 6 9.27344H8.07422C8.36818 8.49467 9.11835 7.9401 10 7.9401C11.1377 7.9401 12.0599 8.86229 12.0599 10ZM5.39323 6C5.39323 6.33505 5.66495 6.60677 6 6.60677C6.33505 6.60677 6.60677 6.33505 6.60677 6C6.60677 5.66495 6.33505 5.39323 6 5.39323C5.66495 5.39323 5.39323 5.66495 5.39323 6ZM14.7266 12.6667C14.7266 13.8044 13.8044 14.7266 12.6667 14.7266H3.33333C2.19563 14.7266 1.27344 13.8044 1.27344 12.6667V3.33333C1.27344 2.19563 2.19563 1.27344 3.33333 1.27344H12.6667C13.8044 1.27344 14.7266 2.19563 14.7266 3.33333V12.6667Z" fill="#EAE9FB"/>
</svg>
