<svg width="16" height="16" viewBox="0 0 16 16" fill="none" xmlns="http://www.w3.org/2000/svg">
<path d="M3.27361 7.33337C3.27361 6.04502 3.6843 4.79931 4.43246 3.77022C4.45402 3.73474 4.4784 3.70031 4.50668 3.668C4.56124 3.6057 4.60242 3.53265 4.62777 3.45381C4.65308 3.37506 4.66245 3.29201 4.65447 3.20967C4.64645 3.12727 4.6216 3.0471 4.58155 2.97464C4.54147 2.90217 4.48695 2.83841 4.42139 2.7878C4.35584 2.73718 4.28029 2.70082 4.20004 2.68037C4.11983 2.65996 4.03632 2.65623 3.9546 2.66931C3.87284 2.68239 3.79463 2.7121 3.72478 2.75655C3.65493 2.80101 3.59482 2.85924 3.54835 2.92777C3.54122 2.93827 3.53387 2.9489 3.52621 2.95902C2.57304 4.21751 2.05788 5.75336 2.06007 7.33207V7.33337C2.06008 8.90859 2.68589 10.4193 3.79965 11.5332C4.91361 12.6472 6.42479 13.2735 8.00017 13.2735C9.57556 13.2735 11.0867 12.6472 12.2007 11.5332C13.3145 10.4193 13.9403 8.9086 13.9403 7.33337C13.9403 6.11161 13.4546 4.94012 12.5907 4.07621C11.7267 3.21229 10.5553 2.7266 9.3335 2.7266C8.11174 2.7266 6.94026 3.21229 6.07634 4.07621C5.21244 4.94012 4.72673 6.11162 4.72673 7.33337C4.72675 8.20149 5.07186 9.03396 5.68572 9.64782C6.29958 10.2617 7.13204 10.6068 8.00017 10.6068C8.8683 10.6068 9.70076 10.2617 10.3146 9.64782C10.9285 9.03396 11.2736 8.20149 11.2736 7.33337C11.2736 6.81886 11.0691 6.32544 10.7052 5.96162C10.3414 5.5978 9.84802 5.39326 9.3335 5.39326C8.81899 5.39327 8.32558 5.59781 7.96176 5.96162C7.59796 6.32544 7.3934 6.81886 7.3934 7.33337C7.39341 7.49425 7.45737 7.64864 7.57113 7.7624C7.6849 7.87616 7.83928 7.94014 8.00017 7.94014C8.16105 7.94014 8.31544 7.87616 8.42921 7.7624C8.54297 7.64864 8.60693 7.49425 8.60694 7.33337C8.60694 6.93204 8.93218 6.60681 9.3335 6.60681C9.73483 6.60681 10.0601 6.93204 10.0601 7.33337C10.0601 7.8797 9.84286 8.40344 9.45655 8.78975C9.07023 9.17606 8.5465 9.39326 8.00017 9.39326C7.45384 9.39326 6.93011 9.17606 6.54379 8.78975C6.15748 8.40344 5.94029 7.8797 5.94027 7.33337C5.94027 6.43341 6.29741 5.57 6.93376 4.93363C7.57014 4.29726 8.43354 3.94014 9.3335 3.94014C10.2335 3.94014 11.0969 4.29726 11.7332 4.93363C12.3696 5.57 12.7267 6.43341 12.7267 7.33337C12.7267 8.58694 12.229 9.78941 11.3426 10.6758C10.4562 11.5622 9.25375 12.0599 8.00017 12.0599C6.74659 12.0599 5.54414 11.5622 4.65772 10.6758C3.77131 9.78941 3.27362 8.58694 3.27361 7.33337ZM15.3934 7.33337C15.3934 9.29418 14.6145 11.1747 13.228 12.5612C11.8415 13.9477 9.96099 14.7266 8.00017 14.7266C6.03935 14.7266 4.15882 13.9477 2.77231 12.5612C1.47244 11.2614 0.706704 9.52727 0.616056 7.6999L0.606941 7.33337C0.604473 5.43744 1.22267 3.5928 2.36736 2.08142C2.52198 1.86214 2.71764 1.67486 2.94418 1.53063C3.18139 1.37965 3.44713 1.27886 3.72478 1.23441C4.00244 1.18997 4.28627 1.20277 4.55876 1.27217C4.83128 1.34158 5.08683 1.46619 5.30941 1.63806C5.53193 1.80991 5.71697 2.02548 5.85303 2.27152C5.86667 2.29618 5.87951 2.32124 5.8921 2.34639C6.89702 1.65291 8.09547 1.27347 9.3335 1.27347C10.9407 1.27347 12.4822 1.91174 13.6187 3.04821C14.7551 4.18468 15.3934 5.72617 15.3934 7.33337Z" fill="#EAE9FB"/>
</svg>
